<svg width="32" height="32" viewBox="0 0 32 32" fill="none" xmlns="http://www.w3.org/2000/svg">
<path d="M18.4499 0.0158691H20.3405C20.4986 0.0646084 20.6667 0.0431359 20.8279 0.0714251C22.9785 0.280697 25.1105 0.926237 26.9312 2.1062C27.665 2.5803 28.3337 3.1512 28.9394 3.7797C29.4036 4.30492 29.8477 4.85264 30.2087 5.45558C30.4421 5.81277 30.6224 6.19996 30.8136 6.58033C31.3675 7.7678 31.6984 9.05342 31.8293 10.3551C31.8651 10.5654 31.8487 10.7801 31.8862 10.9904C31.9063 11.246 31.889 11.5027 31.8941 11.7593C31.8873 12.0555 31.9155 12.3541 31.8658 12.6475C31.8361 13.4059 31.7199 14.1584 31.5785 14.9038C31.5004 15.3483 31.3631 15.7791 31.2748 16.2212C30.3798 19.804 29.4834 23.3872 28.5876 26.97C28.4411 27.634 28.2618 28.2901 28.102 28.951C27.9919 29.375 27.8848 29.8112 27.6384 30.1807C27.4585 30.4704 27.2216 30.7206 26.9615 30.9397C26.3395 31.4363 25.5382 31.6691 24.7495 31.6766C24.4145 31.6466 24.0764 31.6033 23.757 31.4915C23.4237 31.3603 23.0879 31.2018 22.8453 30.9302C22.4935 30.62 22.303 30.1538 22.274 29.6916C22.2352 29.4012 22.3163 29.1118 22.3879 28.8327C22.8126 27.1343 23.2366 25.4359 23.6619 23.7379C23.847 23.0208 24.0068 22.2975 24.1912 21.5804C24.8092 19.107 25.4288 16.6336 26.0464 14.1595C26.1964 13.5538 26.2891 12.9348 26.3327 12.3128C26.3221 11.8336 26.36 11.352 26.2979 10.8759C26.2345 10.2801 26.1002 9.68839 25.8668 9.13488C25.6623 8.59739 25.3473 8.10693 24.9687 7.67611C24.8613 7.51353 24.6875 7.41844 24.5576 7.27802C24.4975 7.21528 24.4326 7.15739 24.3634 7.10487C23.9639 6.80085 23.5375 6.52307 23.0706 6.33459C22.6646 6.13452 22.2314 5.9941 21.7938 5.88128C21.1881 5.7078 20.5634 5.59566 19.9335 5.56635C19.6523 5.51557 19.366 5.54726 19.0828 5.5367C18.8596 5.52613 18.6418 5.5851 18.4192 5.57862C17.3759 5.67621 16.3502 5.91162 15.3687 6.27869C14.7205 6.50432 14.1066 6.81312 13.503 7.13657C12.7845 7.56398 12.0869 8.03467 11.471 8.60216C11.2583 8.81893 11.0405 9.03093 10.8275 9.24736C10.4123 9.73168 10.0221 10.2504 9.77566 10.8435C9.50981 11.7092 9.28554 12.5875 9.0415 13.4601C8.74498 14.5886 8.44061 15.7147 8.15704 16.8466C7.81484 18.1268 7.50434 19.4158 7.14237 20.6912C6.97877 21.226 6.81381 21.7607 6.64817 22.2952C6.5725 22.5876 6.51115 22.8889 6.37107 23.1592C5.93071 24.1237 4.97467 24.8139 3.93751 24.9946C3.23096 25.1323 2.46375 25.0372 1.84854 24.6496C1.66961 24.5116 1.47533 24.3838 1.34547 24.195C1.0728 23.8766 0.919088 23.471 0.863533 23.0586C0.855693 22.8644 0.779347 22.6633 0.863192 22.4748C1.70778 19.7062 2.37888 16.8889 3.11747 14.0909C3.52817 12.5129 3.93751 10.9345 4.3973 9.36972C4.49887 8.98662 4.66588 8.62465 4.84788 8.27393C5.34414 7.23371 6.02853 6.29199 6.79609 5.43581C7.09704 5.13588 7.39664 4.83424 7.69827 4.53465C8.17681 4.12735 8.6492 3.71051 9.16897 3.35536C9.42937 3.14098 9.72794 2.98283 10.004 2.79094C11.1073 2.09121 12.291 1.52304 13.519 1.07859C13.8224 0.977703 14.1175 0.850912 14.428 0.771839C15.0807 0.578586 15.7403 0.405101 16.4107 0.287173C16.9298 0.178447 17.4581 0.130389 17.9829 0.0588142C18.1384 0.0410909 18.2989 0.0659717 18.4499 0.0158691Z" fill="#70707B"/>
</svg>
