<svg width="32" height="31" viewBox="0 0 32 31" fill="none" xmlns="http://www.w3.org/2000/svg">
<path d="M6.48334 0.399454C6.66739 0.392978 6.84803 0.349692 7.03209 0.352418C7.51198 0.396045 8.00005 0.466938 8.43939 0.676892C8.73966 0.838788 9.03994 1.03034 9.22501 1.32618C9.49086 1.66258 9.50893 2.12305 9.42508 2.52694C9.1882 3.44549 8.97313 4.37085 8.72398 5.28667C8.44825 6.39609 8.17013 7.50516 7.89303 8.61423C7.68683 9.45814 7.45506 10.2952 7.25226 11.1398C7.01232 12.1023 6.7693 13.0635 6.53106 14.0267C6.32417 14.7861 6.14149 15.5522 5.94926 16.3161C5.7318 17.1371 5.56071 17.9769 5.54878 18.829C5.50788 19.0506 5.5181 19.2755 5.55116 19.4971C5.56445 20.3883 5.76486 21.2752 6.13569 22.0857C6.31565 22.4129 6.49289 22.7452 6.73215 23.0342C6.91722 23.2418 7.08491 23.4668 7.30475 23.6399C7.54811 23.8274 7.7751 24.0387 8.04607 24.188C8.32964 24.3686 8.63128 24.5165 8.9353 24.6597C9.61936 24.9289 10.3283 25.1389 11.0532 25.2646C11.7284 25.3618 12.4132 25.4279 13.0955 25.3734C14.8048 25.2704 16.4848 24.7796 18.0011 23.9872C18.9009 23.5318 19.7254 22.9364 20.4776 22.2677C20.9037 21.856 21.3117 21.4211 21.6392 20.9252C21.8386 20.6218 22.053 20.3161 22.1453 19.9599C23.0438 16.8563 23.8045 13.7158 24.6368 10.5952C24.8076 9.97927 25.0138 9.37395 25.1941 8.76079C25.3659 8.19467 25.6328 7.64831 26.0291 7.20454C26.2394 6.92233 26.5295 6.7134 26.8216 6.52322C27.4497 6.12035 28.2183 5.96766 28.9562 6.03821C29.31 6.08081 29.6641 6.16739 29.9787 6.34053C30.37 6.52356 30.7122 6.82656 30.9126 7.21204C31.1096 7.57537 31.1137 8.01334 31.0265 8.40837C30.4661 10.2751 29.9682 12.1599 29.4872 14.0485C28.824 16.5894 28.1859 19.1378 27.4545 21.6607C27.3915 21.889 27.2964 22.1072 27.1955 22.3212C27.0213 22.7411 26.793 23.1365 26.5581 23.5254C26.1409 24.2064 25.6651 24.8529 25.1198 25.4368C24.8972 25.7159 24.6232 25.9477 24.3788 26.2071C23.8908 26.6532 23.386 27.0844 22.8498 27.4743C22.0076 28.0973 21.098 28.6253 20.1613 29.0922C19.7271 29.2865 19.299 29.4944 18.8529 29.6621C18.4657 29.8301 18.0581 29.944 17.662 30.0885C17.0492 30.2872 16.4241 30.4395 15.7963 30.5796C15.5577 30.6266 15.3157 30.657 15.0782 30.7081C14.7121 30.7735 14.3409 30.8008 13.9742 30.8574C13.786 30.8911 13.5904 30.8489 13.4067 30.9085H11.5161C11.4464 30.888 11.3743 30.8764 11.3017 30.8738C11.0311 30.8686 10.7663 30.8046 10.4963 30.7899C9.67968 30.6791 8.86918 30.5145 8.08492 30.2603C7.20148 30.0046 6.35928 29.6219 5.5515 29.1856C4.96868 28.8523 4.41993 28.4637 3.8988 28.0407C3.73827 27.8949 3.56137 27.7657 3.41379 27.6045C3.181 27.3594 2.92129 27.1389 2.71099 26.8724C1.30335 25.2739 0.419226 23.2418 0.12679 21.1368C0.0681668 20.8035 0.0586234 20.4633 0 20.1303V18.2005C0.0344242 18.072 0.0313567 17.9388 0.0449901 17.8082C0.143832 16.8617 0.284937 15.9149 0.543971 14.9974C0.944792 13.4203 1.32346 11.8372 1.73825 10.2639C2.05387 8.99699 2.37084 7.73079 2.68782 6.46425C2.98605 5.35211 3.24951 4.23043 3.53445 3.11488C3.60943 2.8388 3.65238 2.55114 3.77883 2.29245C3.923 1.99694 4.07671 1.69633 4.31666 1.46626C4.43493 1.35208 4.5457 1.23007 4.67011 1.12236C5.18204 0.703478 5.82996 0.469665 6.48334 0.399454Z" fill="#70707B"/>
</svg>
