<svg width="47" height="43" viewBox="0 0 47 43" fill="none" xmlns="http://www.w3.org/2000/svg">
<path fill-rule="evenodd" clip-rule="evenodd" d="M24.322 -0.0158691H23.2039L22.9566 1.84522C4.46829 2.3409 0.746094 16.734 0.746094 16.734C0.746094 16.734 4.0973 14.6256 9.06022 14.6256C14.1488 14.6256 16.1326 16.6103 16.1326 16.6103C16.1326 16.6103 19.3581 14.0042 23.8253 14.0042C28.2925 14.0042 31.518 16.6103 31.518 16.6103C31.518 16.6103 33.5018 14.6256 38.4667 14.6256C43.5533 14.6256 46.9045 16.734 46.9045 16.734C46.9045 16.734 43.0576 2.3409 24.5693 1.84522L24.322 -0.0158691Z" fill="#70707B"/>
<path fill-rule="evenodd" clip-rule="evenodd" d="M20.9695 42.6686C23.824 42.6686 25.3131 40.9322 25.3131 37.7047V15.9919C24.6927 15.7436 23.7003 15.7436 23.0789 15.9919V37.7047C23.0789 39.8141 22.2102 40.5592 20.9695 40.5592C19.6061 40.5592 18.7354 39.8141 18.7354 37.7047C18.7354 37.0864 18.2407 36.5886 17.743 36.5886C17.1226 36.5886 16.627 37.0853 16.627 37.7047C16.628 40.9312 18.117 42.6686 20.9695 42.6686Z" fill="#70707B"/>
</svg>
