<svg width="18" height="18" viewBox="0 0 18 18" fill="none" xmlns="http://www.w3.org/2000/svg">
<path d="M11.5 16.5H2C1.72386 16.5 1.5 16.2762 1.5 16V3.66667C1.5 3.39052 1.72386 3.16667 2 3.16667H6.5V2C6.5 1.72386 6.72386 1.5 7 1.5H11C11.2762 1.5 11.5 1.72386 11.5 2V6.5M11.5 16.5H16C16.2762 16.5 16.5 16.2762 16.5 16V7C16.5 6.72386 16.2762 6.5 16 6.5H11.5M11.5 16.5V13.1667M11.5 6.5V9.83333M11.5 13.1667V9.83333M11.5 13.1667H13.1667M11.5 9.83333H13.1667" stroke="#FCFCFC" stroke-width="1.25" stroke-linecap="round" stroke-linejoin="round"/>
</svg>
